<?xml version="1.0" encoding="utf-8"?>
<!-- Generator: Adobe Illustrator 21.1.0, SVG Export Plug-In . SVG Version: 6.00 Build 0)  -->
<svg version="1.1" id="レイヤー_1" xmlns="http://www.w3.org/2000/svg" xmlns:xlink="http://www.w3.org/1999/xlink" x="0px"
	 y="0px" viewBox="0 0 248 64" style="enable-background:new 0 0 248 64;" xml:space="preserve">
<style type="text/css">
	.st0{fill:#004EA2;}
	.st1{fill:none;}
	.st2{fill:#0080CB;}
</style>
<g>
	<g>
		<path class="st0" d="M98.3206,16.58l3.6901,6.4944V16.58h1.1504v7.6604h-1.7434l-3.6821-6.495v6.495H96.587V16.58H98.3206z"/>
		<path class="st0" d="M108.7414,22.1787c0,1.0615-0.7894,1.2254-1.7325,1.2254c-0.7871,0-1.36-0.0768-1.36-0.8049
			c0-0.4014,0.0116-0.8662,0.9055-0.9044l1.6534-0.0762c0.0751,0,0.3863-0.0232,0.5336-0.2275V22.1787z M109.7398,20.3025
			c0-1.5246-0.7762-1.8659-2.512-1.8659c-1.3259,0-2.3942,0.2818-2.4046,1.8162h1.0597c0-0.7675,0.3604-0.8928,1.3894-0.8928
			c1.1463,0,1.4691,0.1156,1.4691,0.8067c0,0.5544-0.2646,0.5659-0.518,0.5753l-2.0316,0.0964
			c-0.2223,0.0104-0.6901,0.1074-0.924,0.2622c-0.5734,0.3874-0.6491,1.0123-0.6491,1.5268c0,1.5257,1.0655,1.6909,2.1766,1.6909
			c1.2819,0,1.6815-0.1935,1.9836-0.7288c0.0173,0.3107,0.0289,0.4089,0.0889,0.6508h1.0198
			c-0.0613-0.1854-0.1478-0.4857-0.1478-1.2255V20.3025z"/>
		<path class="st0" d="M111.9643,17.1443h1.0844v1.3698h1.5448v0.992h-1.5448v2.9851c0,0.6715,0.1231,0.8362,1.2341,0.8362
			c0.2021,0,0.2697,0,0.4441-0.0196v0.9817c-0.2033,0.0289-0.4187,0.0405-0.622,0.0405c-0.4938,0-1.379-0.0595-1.7498-0.372
			c-0.2529-0.2125-0.3909-0.6306-0.3909-1.1556v-3.2963h-1.2526v-0.992h1.2526V17.1443z"/>
		<path class="st0" d="M117.0242,18.5141v5.7263h-1.0823v-5.7263H117.0242z M117.0779,16.58v1.1469h-1.1955V16.58H117.0779z"/>
		<path class="st0" d="M119.4964,21.4021c0-1.5258,0.0681-1.9739,1.6176-1.9739c1.3415,0,1.6014,0.2917,1.6014,1.8283
			c0,1.6903-0.1011,2.0795-1.6014,2.0795C119.5645,23.336,119.4964,22.8977,119.4964,21.4021z M118.4298,21.4021
			c0,1.3426,0.1519,1.9253,0.6104,2.3798c0.44,0.4493,1.0735,0.5481,2.1476,0.5481c2.3515,0,2.5998-0.9939,2.5998-3.0642
			c0-1.3218-0.2073-1.8756-0.6144-2.2827c-0.4349-0.4395-1.0713-0.5464-2.1506-0.5464
			C118.7318,18.4366,118.4298,19.3901,118.4298,21.4021z"/>
		<path class="st0" d="M126.0508,18.5141l0.0335,0.6715c0.495-0.7298,1.3606-0.749,1.8093-0.749c0.5579,0,2.1217,0,2.1217,1.8948
			v3.909h-1.069v-3.7133c0-0.4487-0.0605-1.1192-1.3426-1.1192c-0.4279,0-0.8726,0.0284-1.2399,0.4112
			c-0.2558,0.2592-0.2673,0.8922-0.2673,1.0579v3.3633h-1.0643v-5.7263H126.0508z"/>
		<path class="st0" d="M135.3997,22.1787c0,1.0615-0.786,1.2254-1.7284,1.2254c-0.7906,0-1.3611-0.0768-1.3611-0.8049
			c0-0.4014,0.0115-0.8662,0.9026-0.9044l1.6515-0.0762c0.0843,0,0.3916-0.0232,0.5354-0.2275V22.1787z M136.4033,20.3025
			c0-1.5246-0.7813-1.8659-2.519-1.8659c-1.3241,0-2.3884,0.2818-2.4011,1.8162h1.0597c0-0.7675,0.3638-0.8928,1.3882-0.8928
			c1.1509,0,1.4685,0.1156,1.4685,0.8067c0,0.5544-0.264,0.5659-0.5146,0.5753l-2.0327,0.0964
			c-0.2195,0.0104-0.6895,0.1074-0.9234,0.2622c-0.5734,0.3874-0.6508,1.0123-0.6508,1.5268c0,1.5257,1.0695,1.6909,2.1783,1.6909
			c1.2838,0,1.6793-0.1935,1.9843-0.7288c0.0201,0.3107,0.0283,0.4089,0.0854,0.6508h1.0198
			c-0.0606-0.1854-0.1426-0.4857-0.1426-1.2255V20.3025z"/>
		<path class="st0" d="M139.0604,16.58v7.6604h-1.0747V16.58H139.0604z"/>
		<path class="st0" d="M145.7505,16.58v7.6604h-1.1647V16.58H145.7505z"/>
		<path class="st0" d="M148.5669,18.5141l0.0399,0.6715c0.4954-0.7298,1.3622-0.749,1.8081-0.749c0.5543,0,2.1188,0,2.1188,1.8948
			v3.909h-1.0655v-3.7133c0-0.4487-0.0595-1.1192-1.3461-1.1192c-0.4255,0-0.8748,0.0284-1.2422,0.4112
			c-0.2546,0.2592-0.265,0.8922-0.265,1.0579v3.3633h-1.0677v-5.7263H148.5669z"/>
		<path class="st0" d="M157.7708,20.2246c0-0.4574-0.0473-0.8455-1.3612-0.8455c-0.9892,0-1.4535,0.0687-1.4535,0.8455
			c0,0.3124,0.0583,0.4966,0.7005,0.5555l1.9791,0.194c0.9632,0.0889,1.4101,0.6059,1.4101,1.5973
			c0,0.5977-0.243,1.1532-0.6808,1.4172c-0.3015,0.1733-0.7473,0.3297-1.8549,0.3297c-2.2187,0-2.6304-0.6601-2.6466-1.9946h1.0493
			c0,0.4972,0,0.7004,0.3321,0.858c0.3015,0.1352,0.7242,0.1733,1.2912,0.1733c1.2629,0,1.4523-0.2731,1.4523-0.8275
			c0-0.4672-0.1895-0.6-0.7813-0.6595l-1.9831-0.2142c-1.1561-0.1179-1.2693-0.9605-1.2693-1.4293
			c0-1.7498,1.5355-1.788,2.4664-1.788c2.3602,0,2.3908,1.0112,2.4116,1.788H157.7708z"/>
		<path class="st0" d="M161.1462,17.1443h1.0787v1.3698h1.546v0.992h-1.546v2.9851c0,0.6715,0.1236,0.8362,1.2301,0.8362
			c0.2108,0,0.2737,0,0.4516-0.0196v0.9817c-0.2021,0.0289-0.4163,0.0405-0.6232,0.0405c-0.4948,0-1.379-0.0595-1.7486-0.372
			c-0.254-0.2125-0.3886-0.6306-0.3886-1.1556v-3.2963h-1.256v-0.992h1.256V17.1443z"/>
		<path class="st0" d="M166.1974,18.5141v5.7263h-1.077v-5.7263H166.1974z M166.2563,16.58v1.1469h-1.1942V16.58H166.2563z"/>
		<path class="st0" d="M168.6598,17.1443h1.0759v1.3698h1.5436v0.992h-1.5436v2.9851c0,0.6715,0.1264,0.8362,1.2364,0.8362
			c0.2033,0,0.2697,0,0.4453-0.0196v0.9817c-0.2056,0.0289-0.4164,0.0405-0.622,0.0405c-0.4984,0-1.379-0.0595-1.7474-0.372
			c-0.2576-0.2125-0.3882-0.6306-0.3882-1.1556v-3.2963h-1.2577v-0.992h1.2577V17.1443z"/>
		<path class="st0" d="M176.3669,24.2404l-0.0397-0.6612c-0.4961,0.7305-1.4092,0.7392-1.8093,0.7392
			c-1.304,0-2.1182-0.4661-2.1182-1.9357v-3.8686h1.0695v3.6837c0,0.4568,0,1.148,1.3749,1.148c0.3159,0,0.8033-0.0289,1.151-0.3678
			c0.2362-0.2247,0.3205-0.749,0.3205-1.0505v-3.4135h1.0713v5.7263H176.3669z"/>
		<path class="st0" d="M179.6771,17.1443h1.0827v1.3698h1.5436v0.992h-1.5436v2.9851c0,0.6715,0.1264,0.8362,1.2352,0.8362
			c0.2033,0,0.2708,0,0.4465-0.0196v0.9817c-0.2057,0.0289-0.4187,0.0405-0.6266,0.0405c-0.4938,0-1.3778-0.0595-1.7474-0.372
			c-0.2542-0.2125-0.3904-0.6306-0.3904-1.1556v-3.2963h-1.252v-0.992h1.252V17.1443z"/>
		<path class="st0" d="M184.3322,20.8488c0.0514-0.954,0.1663-1.4409,1.6326-1.4409c1.4033,0,1.4622,0.5643,1.4784,1.4409H184.3322z
			 M188.5426,21.7017c0.0207-2.206-0.1426-3.2651-2.6247-3.2651c-2.3319,0-2.6431,1.1267-2.6431,3.0514
			c0,2.0154,0.4984,2.8303,2.7719,2.8303c1.7382,0,2.3978-0.5637,2.4867-1.9635h-1.0788c-0.0491,0.7768-0.2009,0.991-1.4898,0.991
			c-0.6595,0-1.2514-0.1056-1.4761-0.496c-0.1426-0.2506-0.1426-0.4361-0.1565-1.1481H188.5426z"/>
		<path class="st0" d="M194.2499,21.4021c0-1.5258,0.0658-1.9739,1.6116-1.9739c1.3403,0,1.6049,0.2917,1.6049,1.8283
			c0,1.6903-0.0988,2.0795-1.6049,2.0795C194.3157,23.336,194.2499,22.8977,194.2499,21.4021z M193.1786,21.4021
			c0,1.3426,0.1542,1.9253,0.6127,2.3798c0.4377,0.4493,1.0689,0.5481,2.1499,0.5481c2.3504,0,2.5987-0.9939,2.5987-3.0642
			c0-1.3218-0.2085-1.8756-0.618-2.2827c-0.4325-0.4395-1.0689-0.5464-2.147-0.5464
			C193.4801,18.4366,193.1786,19.3901,193.1786,21.4021z"/>
		<path class="st0" d="M200.3036,18.1832c0-1.6903,0.8986-1.6903,2.4613-1.6823v0.9829c-0.9379-0.0381-1.3918,0-1.3918,0.6421
			v0.3882h1.3918v0.992h-1.3918v4.7343h-1.0695v-4.7343h-0.9702v-0.992h0.9702V18.1832z"/>
		<path class="st0" d="M97.9672,29.4846v7.6579h-1.1648v-7.6579H97.9672z"/>
		<path class="st0" d="M100.7825,31.4162l0.0421,0.6721c0.496-0.7305,1.36-0.7466,1.8105-0.7466c0.5531,0,2.1158,0,2.1158,1.8929
			v3.9078h-1.0631v-3.7132c0-0.4435-0.0601-1.1151-1.3473-1.1151c-0.4238,0-0.8714,0.0278-1.2456,0.4066
			c-0.2529,0.265-0.2598,0.8933-0.2598,1.0603v3.3614h-1.0689v-5.7262H100.7825z"/>
		<path class="st0" d="M106.6104,31.0887c0-1.6921,0.9049-1.6921,2.4561-1.6833v0.9834c-0.9344-0.0399-1.3872,0-1.3872,0.641v0.3864
			h1.3872v0.9926h-1.3872v4.7336h-1.0689v-4.7336h-0.9777v-0.9926h0.9777V31.0887z"/>
		<path class="st0" d="M110.9554,34.3041c0-1.5251,0.0641-1.9704,1.6124-1.9704c1.3381,0,1.6037,0.2894,1.6037,1.8267
			c0,1.6909-0.0971,2.0812-1.6037,2.0812C111.0195,36.2416,110.9554,35.8021,110.9554,34.3041z M109.8842,34.3041
			c0,1.3427,0.153,1.926,0.6138,2.3833c0.4349,0.4493,1.0689,0.5439,2.1471,0.5439c2.3545,0,2.5975-0.9898,2.5975-3.0618
			c0-1.3231-0.2032-1.8751-0.6116-2.2852c-0.4423-0.4359-1.0723-0.5427-2.1493-0.5427
			C110.1891,31.3417,109.8842,32.2945,109.8842,34.3041z"/>
		<path class="st0" d="M117.515,31.4162l0.0514,0.6046c0.473-0.6907,1.1532-0.6907,2.5357-0.6791v1.0493
			c-0.3718-0.0196-0.533-0.0312-0.7508-0.0312c-0.4279,0-0.891,0-1.361,0.3511c-0.3864,0.2927-0.4239,0.6421-0.4239,0.8846v3.5469
			h-1.0689v-5.7262H117.515z"/>
		<path class="st0" d="M122.121,31.4162l0.0174,0.6346c0.3171-0.3725,0.7594-0.7091,1.6845-0.7091
			c0.5319,0,1.2428,0.1351,1.6498,0.8269c0.3229-0.7121,1.2376-0.8477,1.684-0.8477c1.3662,0,1.9582,0.5861,1.9582,1.7388v4.0827
			h-1.0712v-3.8113c0-0.4169-0.0491-1.017-1.0995-1.017c-0.7311,0-1.3028,0.1727-1.3028,1.1544v3.6739h-1.0643v-3.701
			c0-0.4961,0-1.1181-1.0949-1.1181c-0.98,0-1.3201,0.3974-1.3201,1.136v3.6831h-1.0701v-5.7262H122.121z"/>
		<path class="st0" d="M134.5145,35.0837c0,1.0591-0.7872,1.2231-1.7297,1.2231c-0.7859,0-1.361-0.0768-1.361-0.8051
			c0-0.3984,0.0126-0.8656,0.9049-0.9037l1.655-0.0803c0.0763,0,0.387-0.0168,0.5308-0.2212V35.0837z M135.5193,33.2075
			c0-1.5292-0.779-1.8658-2.519-1.8658c-1.3243,0-2.3932,0.2801-2.4024,1.8167h1.0585c0-0.7674,0.361-0.8928,1.3906-0.8928
			c1.1492,0,1.4675,0.1138,1.4675,0.8045c0,0.5543-0.2594,0.5659-0.5146,0.5746l-2.0316,0.0976
			c-0.2218,0.0082-0.6901,0.1075-0.9239,0.2646c-0.5729,0.3863-0.6526,1.0082-0.6526,1.524c0,1.5279,1.0753,1.6903,2.1801,1.6903
			c1.282,0,1.6833-0.1947,1.9836-0.7283c0.018,0.3113,0.0294,0.4083,0.0867,0.6496h1.0186c-0.0549-0.183-0.1414-0.485-0.1414-1.2236
			V33.2075z"/>
		<path class="st0" d="M137.7425,30.0459h1.0793v1.3704h1.5466v0.9926h-1.5466v2.985c0,0.6728,0.1242,0.8363,1.233,0.8363
			c0.2056,0,0.2738,0,0.4481-0.0196v0.9822c-0.2084,0.0284-0.4175,0.0387-0.6236,0.0387c-0.4909,0-1.378-0.0583-1.7486-0.3696
			c-0.2489-0.2124-0.3882-0.6317-0.3882-1.1549v-3.298h-1.2571v-0.9926h1.2571V30.0459z"/>
		<path class="st0" d="M141.6597,29.4846v1.1469h1.1947v-1.1469H141.6597z M141.7202,31.4162v5.7262h1.0747v-5.7262H141.7202z"/>
		<path class="st0" d="M145.2758,34.3041c0-1.5251,0.0641-1.9704,1.61-1.9704c1.3415,0,1.606,0.2894,1.606,1.8267
			c0,1.6909-0.0982,2.0812-1.606,2.0812C145.34,36.2416,145.2758,35.8021,145.2758,34.3041z M144.2011,34.3041
			c0,1.3427,0.1565,1.926,0.6138,2.3833c0.4418,0.4493,1.0713,0.5439,2.1506,0.5439c2.3544,0,2.5929-0.9898,2.5929-3.0618
			c0-1.3231-0.201-1.8751-0.6104-2.2852c-0.4378-0.4359-1.069-0.5427-2.1518-0.5427
			C144.506,31.3417,144.2011,32.2945,144.2011,34.3041z"/>
		<path class="st0" d="M151.8262,31.4162l0.0352,0.6721c0.4949-0.7305,1.36-0.7466,1.8116-0.7466c0.5521,0,2.1194,0,2.1194,1.8929
			v3.9078h-1.0736v-3.7132c0-0.4435-0.0543-1.1151-1.338-1.1151c-0.4285,0-0.8726,0.0278-1.2468,0.4066
			c-0.2506,0.265-0.2598,0.8933-0.2598,1.0603v3.3614h-1.0689v-5.7262H151.8262z"/>
		<path class="st0" d="M164.7018,35.0837c0,1.0591-0.786,1.2231-1.7307,1.2231c-0.7825,0-1.3606-0.0768-1.3606-0.8051
			c0-0.3984,0.0156-0.8656,0.9032-0.9037l1.6539-0.0803c0.0779,0,0.388-0.0168,0.5342-0.2212V35.0837z M165.7054,33.2075
			c0-1.5292-0.7802-1.8658-2.5166-1.8658c-1.3242,0-2.3954,0.2801-2.4046,1.8167h1.0567c0-0.7674,0.365-0.8928,1.3964-0.8928
			c1.144,0,1.4645,0.1138,1.4645,0.8045c0,0.5543-0.2646,0.5659-0.5168,0.5746l-2.0316,0.0976
			c-0.2201,0.0082-0.6889,0.1075-0.9229,0.2646c-0.574,0.3863-0.6502,1.0082-0.6502,1.524c0,1.5279,1.0667,1.6903,2.1777,1.6903
			c1.2843,0,1.6793-0.1947,1.9837-0.7283c0.0184,0.3113,0.0283,0.4083,0.0854,0.6496h1.0234c-0.0607-0.183-0.145-0.485-0.145-1.2236
			V33.2075z"/>
		<path class="st0" d="M168.1822,31.4162l0.0399,0.6721c0.4984-0.7305,1.3571-0.7466,1.8081-0.7466c0.5498,0,2.1194,0,2.1194,1.8929
			v3.9078h-1.0712v-3.7132c0-0.4435-0.0613-1.1151-1.3427-1.1151c-0.4279,0-0.8726,0.0278-1.241,0.4066
			c-0.2564,0.265-0.2645,0.8933-0.2645,1.0603v3.3614h-1.0678v-5.7262H168.1822z"/>
		<path class="st0" d="M176.0169,32.2732c1.281,0,1.4819,0.6138,1.4819,2.091c0,1.5853-0.402,1.915-1.5743,1.915
			c-1.3542,0-1.4465-0.6901-1.4465-2.0986C174.478,32.779,174.7321,32.2732,176.0169,32.2732z M177.493,29.4846v2.5172
			c-0.4267-0.5532-0.9892-0.66-1.6967-0.66c-1.8692,0-2.3862,0.9528-2.3862,2.8966c0,1.7584,0.3113,2.993,2.3862,2.993
			c1.0476,0,1.4477-0.3129,1.725-0.7206l0.0514,0.6317h0.9812v-7.6579H177.493z"/>
		<g>
			<path class="st0" d="M101.6071,45.0043c-0.008-1.4795-0.8189-1.6562-2.061-1.6562c-1.8924,0-2.2245,0.4966-2.2245,3.0076
				c0,1.3686,0.0982,2.0968,0.7484,2.4687c0.3477,0.1923,0.7091,0.2628,1.6354,0.2628c1.5575,0,1.9415-0.38,1.9531-1.8278h1.1625
				c-0.0242,2.1951-0.9661,2.8643-3.0959,2.8643c-2.8221,0-3.5601-0.8425-3.5601-3.8858c0-2.7714,0.5734-3.9269,3.3465-3.9269
				c1.8918,0,3.216,0.3846,3.2535,2.6933H101.6071z"/>
			<path class="st0" d="M105.214,47.2086c0-1.5263,0.0677-1.9745,1.6153-1.9745c1.3426,0,1.6054,0.2946,1.6054,1.8295
				c0,1.6903-0.0982,2.0789-1.6054,2.0789C105.2817,49.1426,105.214,48.7072,105.214,47.2086z M104.1451,47.2086
				c0,1.3426,0.1588,1.9247,0.6174,2.3816c0.4325,0.4469,1.0655,0.5463,2.1424,0.5463c2.3544,0,2.5975-0.9939,2.5975-3.0624
				c0-1.3236-0.2021-1.8768-0.6138-2.2863c-0.4337-0.4359-1.0643-0.5417-2.1472-0.5417
				C104.4489,44.2461,104.1451,45.1972,104.1451,47.2086z"/>
			<path class="st0" d="M111.776,44.3229l0.0179,0.6306c0.3107-0.369,0.7622-0.7074,1.6839-0.7074
				c0.5371,0,1.2445,0.1316,1.654,0.8258c0.3193-0.7132,1.2324-0.8482,1.6781-0.8482c1.3629,0,1.9589,0.5844,1.9589,1.7394v4.0868
				h-1.0735v-3.8119c0-0.4193-0.0445-1.021-1.0995-1.021c-0.7236,0-1.3028,0.1755-1.3028,1.1561v3.6769h-1.0573v-3.7033
				c0-0.4978,0-1.1204-1.1001-1.1204c-0.9811,0-1.3195,0.3984-1.3195,1.1376v3.6861h-1.0701v-5.7269H111.776z"/>
			<path class="st0" d="M121.2427,44.3229l0.0196,0.6306c0.3147-0.369,0.7559-0.7074,1.6821-0.7074
				c0.533,0,1.2439,0.1316,1.651,0.8258c0.3229-0.7132,1.2353-0.8482,1.6845-0.8482c1.3589,0,1.9531,0.5844,1.9531,1.7394v4.0868
				h-1.0643v-3.8119c0-0.4193-0.0491-1.021-1.1042-1.021c-0.7276,0-1.3005,0.1755-1.3005,1.1561v3.6769h-1.0631v-3.7033
				c0-0.4978,0-1.1204-1.0984-1.1204c-0.9823,0-1.3167,0.3984-1.3167,1.1376v3.6861h-1.0735v-5.7269H121.2427z"/>
			<path class="st0" d="M133.6505,50.0498l-0.0422-0.6635c-0.4995,0.7322-1.4085,0.7374-1.8115,0.7374
				c-1.297,0-2.1182-0.4637-2.1182-1.9329v-3.868h1.0712v3.6855c0,0.4545,0,1.147,1.3814,1.147c0.3125,0,0.7964-0.03,1.1452-0.3725
				c0.2338-0.2223,0.3228-0.7466,0.3228-1.0493v-3.4106h1.0724v5.7269H133.6505z"/>
			<path class="st0" d="M137.1183,44.3229l0.0381,0.6688c0.4996-0.7288,1.3617-0.7456,1.8133-0.7456c0.5492,0,2.1131,0,2.1131,1.893
				v3.9107h-1.0655v-3.7161c0-0.4481-0.0607-1.1168-1.3415-1.1168c-0.4313,0-0.8794,0.0312-1.2502,0.4077
				c-0.2478,0.261-0.2594,0.8946-0.2594,1.0597v3.3656h-1.0717v-5.7269H137.1183z"/>
			<path class="st0" d="M143.7258,44.3229v5.7269h-1.0816v-5.7269H143.7258z M143.7859,42.3878v1.1469h-1.1977v-1.1469H143.7859z"/>
			<path class="st0" d="M150.4674,47.8629c-0.0352,1.7971-0.8634,2.2736-2.5439,2.2736c-2.1557,0-2.7482-0.719-2.7482-2.9557
				c0-2.2752,0.6312-2.9347,2.664-2.9347c0.9592,0,2.6044,0.0266,2.5755,2.1482h-1.0528c0-1.0413-0.5734-1.1602-1.4644-1.1602
				c-1.3589,0-1.658,0.2045-1.658,1.9745c0,1.3917,0.1166,1.9339,1.5765,1.9339c1.1204,0,1.6043-0.1547,1.5904-1.2797H150.4674z"/>
			<path class="st0" d="M155.6895,47.9871c0,1.0603-0.7887,1.2272-1.729,1.2272c-0.7871,0-1.361-0.0809-1.361-0.8079
				c0-0.398,0.0069-0.868,0.9095-0.9067l1.6492-0.0774c0.0775,0,0.3882-0.0184,0.5313-0.2222V47.9871z M156.6903,46.1113
				c0-1.5268-0.7743-1.8652-2.512-1.8652c-1.3241,0-2.3988,0.2801-2.4035,1.8179h1.0585c0-0.7686,0.3626-0.894,1.3894-0.894
				c1.1486,0,1.4668,0.115,1.4668,0.8051c0,0.5544-0.2587,0.5642-0.5139,0.5745l-2.031,0.0959
				c-0.2223,0.0092-0.6901,0.1098-0.924,0.261c-0.5734,0.3892-0.6479,1.0124-0.6479,1.528c0,1.5252,1.0689,1.6891,2.1743,1.6891
				c1.2825,0,1.6839-0.1929,1.9842-0.7282c0.0168,0.313,0.0306,0.4101,0.0866,0.6543h1.0222
				c-0.0607-0.1883-0.1496-0.4868-0.1496-1.2254V46.1113z"/>
			<path class="st0" d="M158.9172,42.9503h1.0758v1.3726h1.5511v0.9893h-1.5511v2.9896c0,0.6687,0.1288,0.8315,1.2376,0.8315
				c0.2073,0,0.2738,0,0.4493-0.0185v0.9812c-0.2061,0.0277-0.4187,0.0404-0.626,0.0404c-0.4897,0-1.3784-0.0595-1.7504-0.3708
				c-0.2506-0.2131-0.3863-0.6324-0.3863-1.1567v-3.2968h-1.2515v-0.9893h1.2515V42.9503z"/>
			<path class="st0" d="M163.9707,44.3229v5.7269h-1.0747v-5.7269H163.9707z M164.0284,42.3878v1.1469h-1.1931v-1.1469H164.0284z"/>
			<path class="st0" d="M166.4492,47.2086c0-1.5263,0.0675-1.9745,1.6164-1.9745c1.3392,0,1.6042,0.2946,1.6042,1.8295
				c0,1.6903-0.0982,2.0789-1.6042,2.0789C166.5168,49.1426,166.4492,48.7072,166.4492,47.2086z M165.3803,47.2086
				c0,1.3426,0.1542,1.9247,0.6104,2.3816c0.4401,0.4469,1.0689,0.5463,2.1494,0.5463c2.3521,0,2.5964-0.9939,2.5964-3.0624
				c0-1.3236-0.2009-1.8768-0.6127-2.2863c-0.4371-0.4359-1.0689-0.5417-2.147-0.5417
				C165.6818,44.2461,165.3803,45.1972,165.3803,47.2086z"/>
			<path class="st0" d="M172.9985,44.3229l0.0445,0.6688c0.4938-0.7288,1.3594-0.7456,1.8011-0.7456c0.5591,0,2.1229,0,2.1229,1.893
				v3.9107h-1.0701v-3.7161c0-0.4481-0.0583-1.1168-1.3381-1.1168c-0.4348,0-0.8748,0.0312-1.2502,0.4077
				c-0.2541,0.261-0.2564,0.8946-0.2564,1.0597v3.3656h-1.0735v-5.7269H172.9985z"/>
			<path class="st0" d="M182.2088,46.034c0-0.4597-0.0525-0.8477-1.3646-0.8477c-0.9898,0-1.4599,0.0675-1.4599,0.8477
				c0,0.3125,0.0583,0.4955,0.7005,0.5555l1.9848,0.1912c0.9667,0.0894,1.4114,0.6046,1.4114,1.5967
				c0,0.5988-0.2437,1.1543-0.6791,1.4165c-0.3055,0.1756-0.7508,0.3297-1.8595,0.3297c-2.2152,0-2.627-0.6583-2.6454-1.9894h1.0499
				c0,0.4938,0,0.6999,0.3303,0.8535c0.3061,0.1374,0.7201,0.1767,1.2959,0.1767c1.2583,0,1.4454-0.2743,1.4454-0.8264
				c0-0.4695-0.1871-0.6047-0.7813-0.663l-1.9814-0.2119c-1.1555-0.1154-1.271-0.9632-1.271-1.4293
				c0-1.7492,1.539-1.7879,2.4699-1.7879c2.3618,0,2.3948,1.0076,2.4133,1.7879H182.2088z"/>
		</g>
		<g>
			<path class="st0" d="M193.4738,42.311v1.0497h-2.6432v6.6111h-1.1601v-6.6111h-2.6201V42.311H193.4738z"/>
			<path class="st0" d="M194.3568,46.578c0.0501-0.9535,0.1669-1.4385,1.6314-1.4385c1.4009,0,1.4581,0.5636,1.476,1.4385H194.3568z
				 M198.5638,47.4315c0.0219-2.2031-0.1426-3.2622-2.6247-3.2622c-2.3284,0-2.6419,1.1284-2.6419,3.0526
				c0,2.0114,0.4926,2.8267,2.7684,2.8267c1.74,0,2.4058-0.5635,2.4906-1.9646h-1.0747c-0.0537,0.7779-0.2078,0.9938-1.4933,0.9938
				c-0.6596,0-1.2492-0.1096-1.4784-0.4988c-0.145-0.2507-0.145-0.4332-0.153-1.1476H198.5638z"/>
			<path class="st0" d="M205.0021,47.7866c-0.0294,1.7948-0.8564,2.2724-2.5391,2.2724c-2.1581,0-2.7466-0.7218-2.7466-2.9561
				c0-2.2782,0.6282-2.9337,2.6576-2.9337c0.9638,0,2.6078,0.0272,2.5773,2.1478h-1.0418c0-1.0412-0.5815-1.1578-1.476-1.1578
				c-1.3507,0-1.6504,0.2021-1.6504,1.9732c0,1.39,0.1126,1.9335,1.5695,1.9335c1.122,0,1.6118-0.153,1.5841-1.2792H205.0021z"/>
			<path class="st0" d="M207.3398,42.311v2.5928c0.4724-0.6964,1.3075-0.7346,1.8127-0.7346c1.2422,0,2.1113,0.4361,2.1113,1.9709
				v3.8317h-1.0725V46.287c0-0.4972-0.075-1.1573-1.3778-1.1573c-1.1324,0-1.4738,0.4948-1.4738,1.468v3.3742h-1.0643V42.311
				H207.3398z"/>
			<path class="st0" d="M213.7094,44.2461l0.0405,0.6716c0.4926-0.7311,1.3617-0.7485,1.8058-0.7485c0.5555,0,2.1251,0,2.1251,1.896
				v3.9067h-1.0758v-3.7167c0-0.4469-0.0583-1.1156-1.345-1.1156c-0.4233,0-0.868,0.0295-1.2376,0.4089
				c-0.2536,0.2598-0.265,0.8939-0.265,1.0591v3.3644h-1.0679v-5.7257H213.7094z"/>
			<path class="st0" d="M219.9895,47.1323c0-1.5274,0.0659-1.9732,1.6164-1.9732c1.3403,0,1.6002,0.2915,1.6002,1.8294
				c0,1.688-0.0936,2.0773-1.6002,2.0773C220.0554,49.0658,219.9895,48.6303,219.9895,47.1323z M218.916,47.1323
				c0,1.3427,0.1617,1.9265,0.6138,2.3816c0.4413,0.4458,1.0747,0.5451,2.1512,0.5451c2.3532,0,2.5986-0.9932,2.5986-3.0607
				c0-1.323-0.2073-1.8774-0.6178-2.2874c-0.4372-0.4353-1.0667-0.5417-2.1472-0.5417
				C219.2237,44.1693,218.916,45.121,218.916,47.1323z"/>
			<path class="st0" d="M226.7265,42.311v7.6609h-1.0799V42.311H226.7265z"/>
			<path class="st0" d="M229.2102,47.1323c0-1.5274,0.0727-1.9732,1.614-1.9732c1.3427,0,1.6037,0.2915,1.6037,1.8294
				c0,1.688-0.097,2.0773-1.6037,2.0773C229.283,49.0658,229.2102,48.6303,229.2102,47.1323z M228.1436,47.1323
				c0,1.3427,0.1582,1.9265,0.6093,2.3816c0.44,0.4458,1.0706,0.5451,2.1511,0.5451c2.3533,0,2.5987-0.9932,2.5987-3.0607
				c0-1.323-0.2085-1.8774-0.6174-2.2874c-0.4343-0.4353-1.0689-0.5417-2.1465-0.5417
				C228.4433,44.1693,228.1436,45.121,228.1436,47.1323z"/>
			<path class="st0" d="M237.5421,45.0875c1.0903,0,1.4986,0.1282,1.4986,0.7426c0,0.6884-0.2328,0.8455-1.4415,0.8455
				c-1.1469,0-1.5846-0.0976-1.5846-0.749C236.0147,45.1886,236.3959,45.0875,237.5421,45.0875z M240.6743,43.9527
				c-0.9331-0.0127-1.1578,0.283-1.316,0.5458c-0.3846-0.3119-1.3202-0.3292-1.8653-0.3292c-1.5927,0-2.478,0.298-2.478,1.6205
				c0,0.2222,0.0081,0.7779,0.3073,1.1284c-0.3367,0.0595-0.678,0.4083-0.678,1.0002c0,0.2927,0.1166,0.701,0.5555,0.8472
				c-0.1847,0.0964-0.6022,0.3211-0.6022,1.0966c0,1.1464,0.9551,1.412,2.9445,1.412c2.2175,0,2.8996-0.3621,2.8996-1.5644
				c0-0.8477-0.3033-1.3542-1.4587-1.4299l-2.891-0.2125c-0.1241-0.0138-0.4724-0.03-0.4724-0.3701
				c0-0.2143,0.1611-0.3205,0.2991-0.3992c0.0959,0.059,0.1733,0.1063,0.3298,0.1456c0.3909,0.086,1.0401,0.116,1.4483,0.116
				c1.5753,0,2.3514-0.2829,2.3514-1.6897c0-0.4193-0.0756-0.5555-0.1645-0.7108c0.138-0.2328,0.2749-0.2934,0.7905-0.3015V43.9527z
				 M238.3679,49.0658c0.9569,0.071,1.0609,0.2714,1.0609,0.6144c0,0.4579-0.1743,0.6809-1.7318,0.6809
				c-0.4285,0-1.4553-0.0116-1.8145-0.1669c-0.153-0.0681-0.3049-0.2039-0.3049-0.5429c0-0.283,0.0889-0.633,0.6525-0.73
				L238.3679,49.0658z"/>
			<path class="st0" d="M242.7937,44.2571l1.7516,4.0597l1.6013-4.0597h1.1989l-2.4208,5.7332
				c-0.3419,0.8165-0.618,1.2838-1.8214,1.2838c-0.152,0-0.678,0-0.9893-0.067v-0.9327c0.5146,0.0538,0.9038,0.0538,0.9136,0.0538
				c0.6404,0,0.775-0.2109,0.9333-0.6301l0.0675-0.1743l-2.4537-5.2666H242.7937z"/>
		</g>
	</g>
	<g>
		<path class="st0" d="M20.4509,46.446l8.585-22.2309h-5.1452l-4.8439,12.1586l-2.1097-9.6512
			c-0.4052-1.8528-1.1588-2.5074-3.1253-2.5074H9.8472L1.0001,46.446h5.4591l5.9115-15.7117l2.6968,13.7374
			c0.296,1.5033,0.9863,1.9743,2.7972,1.9743H20.4509z"/>
		<path class="st1" d="M73.8386,36.2017c1.829-2.0264,3.4513-4.0617,4.847-6.0688h-2.5864L73.8386,36.2017z"/>
		<path class="st2" d="M92.3298,5.0519C85.7584-3.405,64.9035,1.805,45.7476,16.6879c-2.7016,2.0997-5.2256,4.2797-7.5488,6.4987
			h1.1045c1.3241-1.1732,2.7112-2.3288,4.1618-3.456C59.6799,7.1327,77.3337,2.7225,82.8957,9.8813
			c2.4436,3.1454,2.1448,8.0009-0.3317,13.5249h2.8069l-2.5066,6.7267h-4.1788c-1.3957,2.007-3.018,4.0423-4.847,6.0688
			l-4.0731,10.936C88.7767,32.2814,98.8745,13.4755,92.3298,5.0519z"/>
		<path class="st2" d="M61.8803,46.958c-15.7233,11.5894-32.3392,15.4515-37.704,8.5462
			c-4.3638-5.615,0.0136-16.6825,9.9308-27.2751l0.578-1.4956C22.9739,39.245,17.8071,52.3156,22.9605,58.9491
			c6.5464,8.4258,27.2734,3.2813,46.3723-11.4763h-7.6511L61.8803,46.958z"/>
		<path class="st0" d="M56.7049,41.2465c-2.8646,0.1187-5.3154,0.1254-7.7878-0.0449c-1.7627-0.1221-2.5976-1.5438-2.5263-2.9495
			c0.1093-2.1612,1.9729-5.9656,3.0971-7.2071c1.1277-1.247,2.0869-1.6808,3.92-1.8939c1.6684-0.1942,3.8304-0.1742,6.7908-0.0444
			l1.7419-4.6742c-2.848-0.2142-7.0631-0.2508-9.0207-0.0599c-2.9135,0.284-5.2553,1.2581-7.0936,3.4604
			c-2.7948,3.3506-5.1926,8.9256-5.2938,12.9618c-0.0793,3.1797,2.083,5.26,4.6653,5.5324c3.0771,0.3267,6.6282,0.2369,9.6163,0
			L56.7049,41.2465z"/>
		<polygon class="st0" points="64.7519,24.4326 63.0092,29.1067 69.8751,29.1067 63.1786,46.446 68.9276,46.446 75.3861,29.1067 
			82.1516,29.1067 83.8928,24.4326 		"/>
		<polygon class="st0" points="28.1623,46.4604 33.7102,46.4604 42.1115,24.2128 36.76,24.2128 		"/>
	</g>
</g>
</svg>
